2014050_C5_05_grf
version=1
nRows=24
nColumns=19
inDegrees=no
endheader
time	ground_force_1_vx	ground_force_1_vy	ground_force_1_vz	ground_force_1_px	ground_force_1_py	ground_force_1_pz	ground_force_1_mx	ground_force_1_my	ground_force_1_mz	ground_force_2_vx	ground_force_2_vy	ground_force_2_vz	ground_force_2_px	ground_force_2_py	ground_force_2_pz	ground_force_2_mx	ground_force_2_my	ground_force_2_mz
      0.71000000	      0.00000000	      0.00000000	      0.00000000	      0.00000000	      0.00000000	      0.00000000	      0.00000000	      0.00000000	      0.00000000	     -0.15183569	    471.89998627	    -28.45967561	      0.85832235	     -0.00200000	     -0.14718634	      0.00000000	      2.54164060	      0.00000000
      0.71100000	      0.00000000	      0.00000000	      0.00000000	      0.00000000	      0.00000000	      0.00000000	      0.00000000	      0.00000000	      0.00000000	      0.28378552	    468.59130263	    -28.40303723	      0.85883331	     -0.00200000	     -0.14712549	      0.00000000	      2.54551939	      0.00000000
      0.71200000	      0.00000000	      0.00000000	      0.00000000	      0.00000000	      0.00000000	      0.00000000	      0.00000000	      0.00000000	      0.00000000	      0.71144296	    465.34991264	    -28.35126966	      0.85935747	     -0.00200000	     -0.14706295	      0.00000000	      2.54890454	      0.00000000
      0.71300000	      0.00000000	      0.00000000	      0.00000000	      0.00000000	      0.00000000	      0.00000000	      0.00000000	      0.00000000	      0.00000000	      1.12920516	    462.19378710	    -28.30528188	      0.85989834	     -0.00200000	     -0.14699837	      0.00000000	      2.55165477	      0.00000000
      0.71400000	      0.00000000	      0.00000000	      0.00000000	      0.00000000	      0.00000000	      0.00000000	      0.00000000	      0.00000000	      0.00000000	      1.53908681	    459.10671353	    -28.26366760	      0.86045277	     -0.00200000	     -0.14693218	      0.00000000	      2.55388218	      0.00000000
      0.71500000	      0.00000000	      0.00000000	      0.00000000	      0.00000000	      0.00000000	      0.00000000	      0.00000000	      0.00000000	      0.00000000	      1.93914311	    456.10691607	    -28.22719421	      0.86102439	     -0.00200000	     -0.14686405	      0.00000000	      2.55543926	      0.00000000
      0.71600000	      0.00000000	      0.00000000	      0.00000000	      0.00000000	      0.00000000	      0.00000000	      0.00000000	      0.00000000	      0.00000000	      2.33134371	    453.17772031	    -28.19457650	      0.86160994	     -0.00200000	     -0.14679444	      0.00000000	      2.55644796	      0.00000000
      0.71700000	      0.00000000	      0.00000000	      0.00000000	      0.00000000	      0.00000000	      0.00000000	      0.00000000	      0.00000000	      0.00000000	      2.71371042	    450.33754408	    -28.16645615	      0.86221315	     -0.00200000	     -0.14672305	      0.00000000	      2.55675917	      0.00000000
      0.71800000	      0.00000000	      0.00000000	      0.00000000	      0.00000000	      0.00000000	      0.00000000	      0.00000000	      0.00000000	      0.00000000	      3.08818836	    447.56910205	    -28.14166993	      0.86283068	     -0.00200000	     -0.14665027	      0.00000000	      2.55650399	      0.00000000
      0.71900000	      0.00000000	      0.00000000	      0.00000000	      0.00000000	      0.00000000	      0.00000000	      0.00000000	      0.00000000	      0.00000000	      3.45276494	    444.89099085	    -28.12071517	      0.86346634	     -0.00200000	     -0.14657585	      0.00000000	      2.55553282	      0.00000000
      0.72000000	      0.00000000	      0.00000000	      0.00000000	      0.00000000	      0.00000000	      0.00000000	      0.00000000	      0.00000000	      0.00000000	      3.80937825	    442.28547812	    -28.10255624	      0.86411669	     -0.00200000	     -0.14650018	      0.00000000	      2.55398228	      0.00000000
      0.72100000	      0.00000000	      0.00000000	      0.00000000	      0.00000000	      0.00000000	      0.00000000	      0.00000000	      0.00000000	      0.00000000	      4.15597064	    439.77119029	    -28.08754984	      0.86478564	     -0.00200000	     -0.14642305	      0.00000000	      2.55170269	      0.00000000
      0.72200000	      0.00000000	      0.00000000	      0.00000000	      0.00000000	      0.00000000	      0.00000000	      0.00000000	      0.00000000	      0.00000000	      4.49448405	    437.33015656	    -28.07480097	      0.86546965	     -0.00200000	     -0.14634482	      0.00000000	      2.54883535	      0.00000000
      0.72300000	      0.00000000	      0.00000000	      0.00000000	      0.00000000	      0.00000000	      0.00000000	      0.00000000	      0.00000000	      0.00000000	      4.82280832	    434.98097360	    -28.06454431	      0.86617268	     -0.00200000	     -0.14626536	      0.00000000	      2.54523008	      0.00000000
      0.72400000	      0.00000000	      0.00000000	      0.00000000	      0.00000000	      0.00000000	      0.00000000	      0.00000000	      0.00000000	      0.00000000	      5.14290063	    432.70549178	    -28.05602178	      0.86689109	     -0.00200000	     -0.14618501	      0.00000000	      2.54103227	      0.00000000
      0.72500000	      0.00000000	      0.00000000	      0.00000000	      0.00000000	      0.00000000	      0.00000000	      0.00000000	      0.00000000	      0.00000000	      5.45259775	    430.52235246	    -28.04934327	      0.86762893	     -0.00200000	     -0.14610371	      0.00000000	      2.53609013	      0.00000000
      0.72600000	      0.00000000	      0.00000000	      0.00000000	      0.00000000	      0.00000000	      0.00000000	      0.00000000	      0.00000000	      0.00000000	      5.75389247	    428.41312289	    -28.04387733	      0.86838245	     -0.00200000	     -0.14602175	      0.00000000	      2.53055024	      0.00000000
      0.72700000	      0.00000000	      0.00000000	      0.00000000	      0.00000000	      0.00000000	      0.00000000	      0.00000000	      0.00000000	      0.00000000	      6.04456593	    426.39629543	    -28.03960629	      0.86915576	     -0.00200000	     -0.14593910	      0.00000000	      2.52426154	      0.00000000
      0.72800000	      0.00000000	      0.00000000	      0.00000000	      0.00000000	      0.00000000	      0.00000000	      0.00000000	      0.00000000	      0.00000000	      6.32664422	    424.45337772	    -28.03603746	      0.86994502	     -0.00200000	     -0.14585602	      0.00000000	      2.51737571	      0.00000000
      0.72900000	      0.00000000	      0.00000000	      0.00000000	      0.00000000	      0.00000000	      0.00000000	      0.00000000	      0.00000000	      0.00000000	      6.59786351	    422.60272801	    -28.03303488	      0.87075431	     -0.00200000	     -0.14577252	      0.00000000	      2.50975011	      0.00000000
      0.73000000	      0.00000000	      0.00000000	      0.00000000	      0.00000000	      0.00000000	      0.00000000	      0.00000000	      0.00000000	      0.00000000	      6.86031301	    420.82566023	    -28.03024091	      0.87157974	     -0.00200000	     -0.14568878	      0.00000000	      2.50153853	      0.00000000
      0.73100000	      0.00000000	      0.00000000	      0.00000000	      0.00000000	      0.00000000	      0.00000000	      0.00000000	      0.00000000	      0.00000000	      7.11170794	    419.14027929	    -28.02741062	      0.87242538	     -0.00200000	     -0.14560488	      0.00000000	      2.49260477	      0.00000000
      0.73200000	      0.00000000	      0.00000000	      0.00000000	      0.00000000	      0.00000000	      0.00000000	      0.00000000	      0.00000000	      0.00000000	      7.35419057	    417.52788424	    -28.02431956	      0.87328727	     -0.00200000	     -0.14552092	      0.00000000	      2.48310280	      0.00000000
      0.73300000	      0.00000000	      0.00000000	      0.00000000	      0.00000000	      0.00000000	      0.00000000	      0.00000000	      0.00000000	      0.00000000	      7.58545706	    416.00623727	    -28.02062314	      0.87416947	     -0.00200000	     -0.14543700	      0.00000000	      2.47290622	      0.00000000
